<svg width="1058" height="785" viewBox="0 0 1058 785" fill="none" xmlns="http://www.w3.org/2000/svg">
<g id="undraw_Ride_a_bicycle_2yok 1" clip-path="url(#clip0)">
<rect width="1057.7" height="784.98" fill="url(#paint0_linear)"/>
<path id="backg" d="M209.73 115.43C204.25 122.08 202.14 131.43 199.78 140.22C180.78 211.06 133.96 268.04 80.64 308.74C58.06 325.98 30.57 349.1 35.51 380.01C38.17 396.61 49.84 408.83 58.51 422.35C76.7 450.66 82.6 489.14 73.93 523.03C64.07 561.59 36.51 597.57 45.04 636.56C50.3 660.56 68.16 677.64 85.33 692.32C112.117 715.207 139.757 736.647 168.25 756.64C187.35 770.04 207.67 783.08 229.93 784.78C249.53 786.28 268.73 778.83 287.34 771.48C303.6 765.05 320.27 758.36 333.4 745.48C341.97 737.07 348.8 726.22 358.32 719.34C380.68 703.18 409.4 713.42 435.04 720.34C495.54 736.58 560.29 730.65 617.86 703.6C706.17 662.1 773.48 574.95 859.86 528.19C897 508.08 937.4 495.6 971.79 469.7C991.165 454.953 1007.82 436.936 1020.99 416.46C1046.99 376.35 1061.05 325.21 1056.99 275.15C1052.93 225.09 1030.18 176.85 994.45 148.59C956.2 118.34 907.89 112.69 864.37 94.53C819.43 75.77 779.45 43.53 734.94 23.4C698.924 7.15668 659.728 -0.81713 620.228 0.0636446C580.728 0.944419 541.926 10.6574 506.67 28.49C458.23 52.99 409.13 110.15 355.18 114.49C316.74 117.49 239.75 79.01 209.73 115.43Z" fill="url(#paint1_linear)"/>
<g id="left-wheel">
<path id="Vector" d="M277.725 708.778L271.455 610.838L271.325 610.628L265.005 612.828L235.925 697.678L189.675 664.888L263.345 611.478L263.415 611.268L263.835 611.118L268.585 607.668L191.345 564.358L172.425 585.158L175.425 604.658L264.245 606.278V608.278L173.765 606.658L170.345 584.518L196.245 556.058L234.995 510.858L235.685 512.728L243.885 503.728L274.345 509.188V507.978L276.345 508.038V509.548L321.705 517.668L279.415 602.278L273.245 606.748V607.248V607.808L371.045 573.728L359.435 664.938L276.435 612.068L273.515 610.428L322.455 689.308L277.725 708.778ZM273.725 614.438L279.575 705.818L319.625 688.438L273.725 614.438ZM193.145 664.868L234.935 694.498L262.275 614.758L193.145 664.868ZM275.465 609.208L277.555 610.378L357.905 661.578L368.705 576.708L275.465 609.208ZM268.365 602.008L270.875 606.058L271.315 605.738L274.315 511.208L244.575 505.888L236.415 514.888L268.365 602.008ZM192.945 562.948L267.785 604.948L266.485 602.818L234.905 516.548L197.715 557.418L192.945 562.948ZM276.345 511.558L273.345 604.278L277.865 600.998L318.775 519.178L276.345 511.558Z" fill="#535461"/>
<path id="Vector_2" d="M387.415 581.738C383.405 563.919 375.285 547.283 363.705 533.158C359.406 527.909 354.666 523.038 349.535 518.598C329.809 501.567 304.986 491.568 278.962 490.17C252.938 488.771 227.187 496.053 205.749 510.873C184.311 525.693 168.401 547.211 160.515 572.05C152.629 596.89 153.214 623.645 162.178 648.116C171.142 672.587 187.978 693.39 210.042 707.258C232.107 721.127 258.152 727.277 284.09 724.743C310.028 722.208 334.39 711.134 353.353 693.257C372.317 675.379 384.807 651.712 388.865 625.968C389.809 619.907 390.284 613.783 390.285 607.648C390.292 598.932 389.329 590.242 387.415 581.738ZM272.225 696.088C253.993 696.069 236.209 690.435 221.292 679.953C206.374 669.47 195.047 654.648 188.851 637.501C182.655 620.354 181.89 601.715 186.66 584.118C191.43 566.521 201.505 550.82 215.513 539.15C229.521 527.48 246.783 520.408 264.953 518.895C283.122 517.381 301.316 521.501 317.062 530.693C332.807 539.884 345.34 553.703 352.956 570.268C360.571 586.834 362.9 605.343 359.625 623.278C355.875 643.722 345.076 662.203 329.107 675.506C313.137 688.809 293.01 696.093 272.225 696.088Z" fill="#535461"/>
<g id="Group 86">
<path id="Vector_3" d="M272.225 620.058C279.3 620.058 285.035 614.323 285.035 607.248C285.035 600.174 279.3 594.438 272.225 594.438C265.15 594.438 259.415 600.174 259.415 607.248C259.415 614.323 265.15 620.058 272.225 620.058Z" fill="#535461"/>
</g>
</g>
<g id="right-wheel">
<g id="Group 34">
<g id="Group 33">
<g id="Group 32">
<g id="Group 31">
<g id="Group 30">
<g id="Group 29">
<g id="Group 28">
<g id="Group 27">
<g id="Group 26">
<g id="Group 25">
<g id="Group 24">
<g id="Group 23">
<g id="Group 22">
<g id="Group 21">
<g id="Group 20">
<g id="Group 19">
<g id="Group 18">
<g id="Group 17">
<g id="Group 16">
<g id="Group 15">
<g id="Group 14">
<g id="Group 13">
<g id="Group 12">
<g id="Group 11">
<g id="Group 10">
<g id="Group 9">
<g id="Group 8">
<g id="Group 7">
<g id="Group 6">
<g id="Group 5">
<g id="Group 4">
<g id="Group 3">
<g id="Group 2">
<g id="Group 1">
<path id="Vector_4" d="M702.42 708.39L696.16 610.49L696.03 610.28L689.71 612.48L660.62 697.29L614.37 664.49L688.06 611.08L688.13 610.87L688.55 610.72L693.3 607.27L616.06 563.96L597.13 584.76L600.13 604.26L688.93 605.84V607.84L598.45 606.22L595.05 584.11L620.94 555.66L659.66 510.49L660.35 512.36L668.55 503.36L699.09 508.83V507.62L701.09 507.68V509.19L746.45 517.31L704.12 601.96L697.95 606.43V606.93V607.49L795.76 573.41L784.15 664.62L701.15 611.75L698.23 610.11L747.17 689L702.42 708.39ZM698.42 614.05L704.27 705.43L744.32 688.05L698.42 614.05ZM617.85 664.49L659.64 694.12L686.98 614.38L617.85 664.49ZM700.17 608.83L702.26 610L782.61 661.2L793.41 576.33L700.17 608.83ZM693.07 601.63L695.58 605.68L696.02 605.36L699.02 510.83L669.28 505.49L661.12 514.49L693.07 601.63ZM617.68 562.58L692.52 604.58L691.22 602.45L659.64 516.18L622.44 557.06L617.68 562.58ZM701.05 511.19L698.05 603.88L702.57 600.6L743.48 518.78L701.05 511.19Z" fill="#535461"/>
</g>
</g>
</g>
</g>
</g>
</g>
</g>
</g>
</g>
</g>
</g>
</g>
</g>
</g>
</g>
</g>
</g>
</g>
</g>
</g>
</g>
</g>
</g>
</g>
</g>
</g>
</g>
</g>
</g>
</g>
</g>
</g>
</g>
</g>
<g id="Group 84">
<g id="Group 83">
<g id="Group 82">
<g id="Group 81">
<g id="Group 80">
<g id="Group 79">
<g id="Group 78">
<g id="Group 77">
<g id="Group 76">
<g id="Group 75">
<g id="Group 74">
<g id="Group 73">
<g id="Group 72">
<g id="Group 71">
<g id="Group 70">
<g id="Group 69">
<g id="Group 68">
<g id="Group 67">
<g id="Group 66">
<g id="Group 65">
<g id="Group 64">
<g id="Group 63">
<g id="Group 62">
<g id="Group 60">
<g id="Group 59">
<g id="Group 58">
<g id="Group 57">
<g id="Group 56">
<g id="Group 55">
<g id="Group 54">
<g id="Group 53">
<g id="Group 52">
<g id="Group 51">
<g id="Group 50">
<g id="Group 49">
<g id="Group 48">
<g id="Group 47">
<g id="Group 46">
<g id="Group 45">
<g id="Group 44">
<g id="Group 43">
<g id="Group 42">
<g id="Group 41">
<g id="Group 40">
<g id="Group 39">
<g id="Group 38">
<g id="Group 37">
<g id="Group 36">
<g id="Group 35">
<g id="Group 61">
<g id="Group 85">
<path id="Vector_5" d="M697.757 490C687.144 489.988 676.578 491.415 666.347 494.24C661.071 495.695 655.904 497.523 650.887 499.71C624.157 511.297 602.674 532.387 590.594 558.898C578.514 585.41 576.697 615.459 585.492 643.233C594.287 671.008 613.071 694.533 638.209 709.259C663.348 723.984 693.054 728.863 721.582 722.952C750.109 717.04 775.431 700.759 792.648 677.257C809.865 653.755 817.754 624.702 814.789 595.72C811.823 566.738 798.215 539.885 776.595 520.356C754.975 500.828 726.881 490.012 697.747 490H697.757ZM697.357 696.09C677.076 696.082 657.408 689.137 641.62 676.407C625.831 663.678 614.872 645.931 610.562 626.113C606.252 606.295 608.851 585.599 617.928 567.463C627.004 549.326 642.011 534.84 660.457 526.41C665.149 524.262 670.021 522.532 675.017 521.24C687.229 518.07 699.977 517.537 712.411 519.678C724.845 521.818 736.681 526.581 747.13 533.652C757.58 540.722 766.404 549.937 773.015 560.683C779.627 571.429 783.873 583.46 785.473 595.975C787.073 608.49 785.989 621.202 782.293 633.265C778.598 645.329 772.375 656.467 764.04 665.939C755.704 675.41 745.447 682.998 733.951 688.196C722.455 693.395 709.984 696.086 697.367 696.09H697.357Z" fill="#535461"/>
</g>
</g>
</g>
</g>
</g>
</g>
</g>
</g>
</g>
</g>
</g>
</g>
</g>
</g>
</g>
</g>
</g>
</g>
</g>
</g>
</g>
</g>
</g>
</g>
</g>
</g>
</g>
</g>
</g>
</g>
</g>
</g>
</g>
</g>
</g>
</g>
</g>
</g>
</g>
</g>
</g>
</g>
</g>
</g>
</g>
</g>
</g>
</g>
</g>
</g>
</g>
<path id="Vector_6" d="M696.93 619.67C704.005 619.67 709.74 613.935 709.74 606.86C709.74 599.785 704.005 594.05 696.93 594.05C689.855 594.05 684.12 599.785 684.12 606.86C684.12 613.935 689.855 619.67 696.93 619.67Z" fill="#535461"/>
</g>
<g id="man-bike">
<path id="Vector_7" d="M409.47 547.194L366.763 505.05L353.417 518.574L396.124 560.718L409.47 547.194Z" fill="#6C63FF"/>
<path id="Vector_8" opacity="0.1" d="M409.47 547.194L366.763 505.05L353.417 518.574L396.124 560.718L409.47 547.194Z" fill="black"/>
<path id="Vector_9" d="M376.95 484.881C376.95 484.881 401.74 471.801 411.32 463.381C417.087 458.335 423.288 453.808 429.85 449.851L460.95 430.921L525.95 425.921L528.95 436.921C528.95 436.921 533.95 452.921 483.95 466.921C433.95 480.921 408.95 502.921 408.95 502.921C408.95 502.921 376.95 513.881 376.95 484.881Z" fill="#DB8B8B"/>
<path id="Vector_10" opacity="0.1" d="M411.6 500.751C409.83 502.101 408.95 502.881 408.95 502.881C408.95 502.881 376.95 513.881 376.95 484.881C376.95 484.881 378.5 484.061 380.95 482.691C383.425 486.721 386.893 490.05 391.021 492.359C395.149 494.669 399.8 495.881 404.53 495.881H407.92L411.6 500.751Z" fill="black"/>
<path id="Vector_11" opacity="0.05" d="M528.01 442.441C525.23 448.331 515.64 458.011 483.95 466.881C443.34 478.251 419.22 494.881 411.6 500.751C409.83 502.101 408.95 502.881 408.95 502.881C408.95 502.881 376.95 513.881 376.95 484.881C376.95 484.881 378.5 484.061 380.95 482.691C388.38 478.621 404.11 469.691 411.29 463.341C417.056 458.294 423.257 453.766 429.82 449.811L460.92 430.881L472.5 429.991L525.92 425.881L528.92 436.881C528.92 436.881 529.62 439.031 528.01 442.441Z" fill="black"/>
<path id="Vector_12" d="M377.45 478.381L350.95 495.881L428.55 560.881C428.55 560.881 439.95 553.881 433.95 545.881C433.95 545.881 413.95 528.881 412.95 504.881L406.95 496.881H403.56C397.828 496.882 392.237 495.102 387.559 491.788C382.882 488.474 379.35 483.789 377.45 478.381Z" fill="#ABB1D1"/>
<path id="Vector_13" opacity="0.1" d="M528.01 442.441C512.01 434.711 472.95 433.881 472.95 433.881L472.53 429.991L525.95 425.881L528.95 436.881C528.95 436.881 529.62 439.031 528.01 442.441Z" fill="black"/>
<path id="Vector_14" d="M472.95 431.881C472.95 431.881 519.95 432.881 531.95 442.881L525.95 321.881H460.95L472.95 431.881Z" fill="#ABB1D1"/>
<path id="Vector_15" opacity="0.05" d="M472.95 431.381C472.95 431.381 519.95 432.381 531.95 442.381L525.95 321.381H460.95L472.95 431.381Z" fill="black"/>
<path id="Vector_16" d="M510.71 357.841C510.71 357.841 628.36 353.841 630.76 369.051C633.16 384.261 513.11 377.851 513.11 377.851C513.11 377.851 503.51 368.241 510.71 357.841Z" fill="#535461"/>
<path id="Vector_17" opacity="0.05" d="M510.71 357.841C510.71 357.841 628.36 353.841 630.76 369.051C633.16 384.261 513.11 377.851 513.11 377.851C513.11 377.851 503.51 368.241 510.71 357.841Z" fill="black"/>
<path id="Vector_18" d="M415.47 418.671H394.66V599.551H415.47V418.671Z" fill="#6C63FF"/>
<path id="Vector_19" opacity="0.1" d="M415.47 418.661V432.591C408.55 433.491 401.47 434.061 394.66 434.281V418.661H415.47Z" fill="black"/>
<path id="Vector_20" d="M413.91 403.671C410.99 403.445 408.086 403.054 405.21 402.501C393.93 400.341 365.49 395.811 357.84 403.501C348.24 413.101 351.44 429.911 377.05 432.311C402.66 434.711 446.68 428.311 455.49 418.701C455.49 418.661 439.56 405.641 413.91 403.671Z" fill="#535461"/>
<path id="Vector_21" d="M409.87 468.291L628.37 400.261L635.57 417.071L411.47 493.901L409.87 468.291Z" fill="#6C63FF"/>
<path id="Vector_22" d="M474.7 575.541L632.37 420.271L641.17 433.071L490.7 589.941L474.7 575.541Z" fill="#6C63FF"/>
<path id="Vector_23" opacity="0.1" d="M676.05 522.741C671.054 524.033 666.182 525.763 661.49 527.911L651.93 501.201C656.947 499.014 662.114 497.186 667.39 495.731L676.05 522.741Z" fill="black"/>
<path id="Vector_24" d="M702.8 601.151L691.6 607.551L613.46 389.221L609.96 379.451L628.37 369.041L632.98 383.421L702.8 601.151Z" fill="#6C63FF"/>
<path id="Vector_25" opacity="0.1" d="M632.98 383.421L613.46 389.221L609.96 379.451L628.37 369.041L632.98 383.421Z" fill="black"/>
<path id="Vector_26" d="M513.91 400.261L623.56 362.641C623.56 362.641 642.77 365.041 635.56 381.051L525.12 413.861C525.12 413.861 508.32 415.461 513.91 400.261Z" fill="#535461"/>
<path id="Vector_27" opacity="0.1" d="M390.26 608.751C390.259 614.885 389.784 621.01 388.84 627.071C379.24 626.381 369.32 625.381 359.6 624.381C361.759 612.49 361.491 600.285 358.81 588.501C368.28 586.501 377.95 584.591 387.39 582.861C389.303 591.358 390.265 600.041 390.26 608.751Z" fill="black"/>
<path id="Vector_28" opacity="0.1" d="M415.47 578.271V599.541H394.66V581.541C401.86 580.291 408.86 579.181 415.47 578.271Z" fill="black"/>
<path id="Vector_29" d="M281.01 608.381C281.01 608.381 449.09 564.381 462.69 581.171C476.29 597.961 490.7 620.381 448.32 628.381C405.94 636.381 277.84 614.771 277.84 614.771L281.01 608.381Z" fill="#6C63FF"/>
<path id="Vector_30" opacity="0.1" d="M363.68 534.261L342.32 553.811C338.537 548.955 334.261 544.504 329.56 540.531L349.5 519.701C354.634 524.14 359.378 529.011 363.68 534.261Z" fill="black"/>
<path id="Vector_31" d="M275.41 599.551L401.06 468.291L405.07 498.701L281.81 611.551L275.41 599.551Z" fill="#6C63FF"/>
<path id="Vector_32" opacity="0.1" d="M273.81 621.161C280.885 621.161 286.62 615.426 286.62 608.351C286.62 601.276 280.885 595.541 273.81 595.541C266.735 595.541 261 601.276 261 608.351C261 615.426 266.735 621.161 273.81 621.161Z" fill="black"/>
<path id="Vector_33" opacity="0.1" d="M697.6 619.961C704.675 619.961 710.41 614.226 710.41 607.151C710.41 600.076 704.675 594.341 697.6 594.341C690.525 594.341 684.79 600.076 684.79 607.151C684.79 614.226 690.525 619.961 697.6 619.961Z" fill="black"/>
<path id="Vector_34" opacity="0.1" d="M470.69 621.161C484.834 621.161 496.3 609.695 496.3 595.551C496.3 581.407 484.834 569.941 470.69 569.941C456.546 569.941 445.08 581.407 445.08 595.551C445.08 609.695 456.546 621.161 470.69 621.161Z" fill="black"/>
<path id="Vector_35" d="M472.3 621.161C486.444 621.161 497.91 609.695 497.91 595.551C497.91 581.407 486.444 569.941 472.3 569.941C458.156 569.941 446.69 581.407 446.69 595.551C446.69 609.695 458.156 621.161 472.3 621.161Z" fill="#535461"/>
<path id="Vector_36" d="M465.462 593.627L465.454 593.633C462.447 595.882 461.832 600.143 464.081 603.151L484.407 630.331C486.656 633.339 490.918 633.954 493.925 631.705L493.933 631.699C496.941 629.449 497.555 625.188 495.306 622.181L474.98 595C472.731 591.993 468.47 591.378 465.462 593.627Z" fill="#6C63FF"/>
<path id="Vector_37" d="M587.95 239.881L585.57 269.991C585.296 273.805 585.346 277.635 585.72 281.441C586.03 284.811 585.72 290.711 582.42 299.711C578.183 311.208 575.993 323.358 575.95 335.611V369.881L552.95 365.881C552.95 365.881 553.95 317.881 549.95 309.881C545.95 301.881 552.95 230.881 552.95 230.881L587.95 239.881Z" fill="#DB8B8B"/>
<path id="Vector_38" opacity="0.05" d="M586.77 254.801L585.57 269.991C585.3 273.802 585.353 277.629 585.73 281.431C586.04 284.801 585.73 290.701 582.43 299.711C578.193 311.208 576.003 323.358 575.96 335.611V369.881L552.96 365.881C552.96 365.881 553.96 317.881 549.96 309.881C547.13 304.211 549.81 266.941 551.62 245.671C552.37 236.921 552.96 230.881 552.96 230.881L587.96 239.881L586.77 254.801Z" fill="black"/>
<path id="Vector_39" d="M473.97 469.881L465.32 519.081C464.229 525.65 462.556 532.109 460.32 538.381C455.25 552.241 458.49 571.671 460.95 582.271C462.04 586.951 462.95 589.911 462.95 589.911L436.95 603.911L428.95 597.911V593.911L427.95 504.911C421.95 490.911 423.95 469.911 427.95 461.911C429.087 459.282 429.887 456.52 430.33 453.691C432.33 442.971 432.95 427.911 432.95 427.911C432.95 427.911 448.95 400.911 467.95 418.911C474.95 425.541 477.61 434.211 478.17 442.511C479.15 456.721 473.97 469.881 473.97 469.881Z" fill="#DB8B8B"/>
<path id="Vector_40" opacity="0.1" d="M478.17 442.481C464.3 450.721 440.17 453.051 430.33 453.661C432.33 442.941 432.95 427.881 432.95 427.881C432.95 427.881 448.95 400.881 467.95 418.881C474.95 425.511 477.61 434.181 478.17 442.481Z" fill="black"/>
<path id="Vector_41" d="M511.95 417.881C501.316 423.544 491.267 430.243 481.95 437.881C465.95 450.881 425.95 451.881 425.95 451.881V436.881C426.95 418.881 409.95 398.881 386.95 342.881C372.26 307.121 376.33 286.881 381.19 276.881C383.95 271.231 386.95 268.881 386.95 268.881L511.95 292.881L516.42 306.281L525.95 334.881C525.95 334.881 490.95 336.881 484.95 339.881C478.95 342.881 482.95 369.881 482.95 369.881C476.95 397.881 511.95 417.881 511.95 417.881Z" fill="#ABB1D1"/>
<path id="Vector_42" opacity="0.1" d="M587.95 239.881L586.77 254.801C569.37 259.801 556.95 243.881 556.95 243.881C555.135 244.367 553.352 244.965 551.61 245.671C552.36 236.921 552.95 230.881 552.95 230.881L587.95 239.881Z" fill="black"/>
<path id="Vector_43" opacity="0.1" d="M516.42 306.281C515.95 310.951 515.95 313.881 515.95 313.881C515.95 313.881 492.95 332.881 453.95 303.881C414.95 274.881 379.95 282.881 379.95 282.881C379.95 282.881 380.36 280.561 381.19 276.881C383.95 271.231 386.95 268.881 386.95 268.881L511.95 292.881L516.42 306.281Z" fill="black"/>
<path id="Vector_44" d="M601.43 200.831C598.82 221.181 597.95 246.831 597.95 246.831C574.95 264.831 556.95 241.831 556.95 241.831C535.23 247.661 525.02 266.671 520.21 283.261C517.634 292.235 516.202 301.498 515.95 310.831C515.95 310.831 509.87 315.831 498.67 316.831C488.08 317.721 472.9 314.961 453.95 300.831C414.95 271.831 379.95 279.831 379.95 279.831C379.95 279.831 386.95 239.831 402.95 227.831C418.95 215.831 430.95 200.831 450.95 154.831C470.95 108.831 511.95 119.831 511.95 119.831C511.95 119.831 513.95 110.831 550.95 119.831C559.962 122.193 568.304 126.612 575.32 132.741C595.11 149.381 604.71 175.191 601.43 200.831Z" fill="white"/>
<path id="Vector_45" d="M564.32 142.381C564.27 143.711 564.16 145.191 563.98 146.841C561.98 164.841 559.98 162.841 537.98 166.841C524.3 169.331 517.19 157.901 513.77 148.901C512.532 145.641 511.598 142.273 510.98 138.841L558.98 130.841C558.98 130.841 564.73 129.231 564.32 142.381Z" fill="#DB8B8B"/>
<path id="Vector_46" opacity="0.05" d="M520.21 283.311C517.634 292.285 516.202 301.548 515.95 310.881C515.95 310.881 509.87 315.881 498.67 316.881C498.354 316.244 498.113 315.573 497.95 314.881C495.95 305.881 480.95 289.881 480.95 289.881C470.95 280.881 468.95 264.881 468.95 264.881L452.45 216.381L446.95 211.881C446.95 211.881 469.95 193.881 489.95 208.881C509.95 223.881 503.95 255.881 503.95 255.881L507.95 266.881C512.1 270.381 516.32 276.551 520.21 283.311Z" fill="black"/>
<path id="Vector_47" d="M449.95 210.881L471.95 263.881C471.95 263.881 473.95 279.881 483.95 288.881C483.95 288.881 498.95 304.881 500.95 313.881C502.95 322.881 530.95 346.881 530.95 346.881C530.95 346.881 556.95 370.881 558.95 379.881C558.95 379.881 582.95 386.881 579.95 400.881C579.95 400.881 597.95 382.881 579.95 365.881C561.95 348.881 537.95 313.881 537.95 313.881C537.95 313.881 523.95 276.881 510.95 265.881L506.95 254.881C506.95 254.881 512.95 222.881 492.95 207.881C472.95 192.881 449.95 210.881 449.95 210.881Z" fill="#DB8B8B"/>
<path id="Vector_48" opacity="0.1" d="M462.95 589.881L436.95 603.881L428.95 597.881V593.881C437.934 593.243 446.663 590.609 454.5 586.171C456.9 584.811 459.16 583.471 460.97 582.291C462.02 586.921 462.95 589.881 462.95 589.881Z" fill="black"/>
<path id="Vector_49" opacity="0.1" d="M492.95 168.881L506.95 223.881C506.95 223.881 463.95 230.881 454.95 223.881C445.95 216.881 428.95 214.881 428.95 214.881C428.95 214.881 446.95 162.881 456.95 156.881C466.95 150.881 492.95 168.881 492.95 168.881Z" fill="black"/>
<path id="Vector_50" d="M492.95 166.881L506.95 221.881C506.95 221.881 463.95 228.881 454.95 221.881C445.95 214.881 428.95 212.881 428.95 212.881C428.95 212.881 446.95 160.881 456.95 154.881C466.95 148.881 492.95 166.881 492.95 166.881Z" fill="white"/>
<path id="Vector_51" opacity="0.1" d="M564.32 141.381C561.519 145.247 557.957 148.499 553.853 150.938C549.748 153.376 545.188 154.949 540.453 155.56C535.718 156.171 530.909 155.806 526.32 154.489C521.731 153.172 517.46 150.93 513.77 147.901C512.532 144.641 511.598 141.273 510.98 137.841L558.98 129.841C558.98 129.841 564.73 128.231 564.32 141.381Z" fill="black"/>
<path id="Vector_52" d="M570.95 119.881C570.95 129.163 567.263 138.066 560.699 144.63C554.135 151.193 545.233 154.881 535.95 154.881C526.667 154.881 517.765 151.193 511.201 144.63C504.638 138.066 500.95 129.163 500.95 119.881C500.95 119.301 500.95 118.721 500.95 118.141C501.181 108.858 505.09 100.048 511.816 93.6469C518.543 87.2463 527.537 83.7801 536.82 84.0108C546.103 84.2416 554.913 88.1503 561.314 94.8773C567.715 101.604 571.181 110.598 570.95 119.881Z" fill="#DB8B8B"/>
<path id="Vector_53" opacity="0.1" d="M570.48 119.99C570.483 123.216 570.039 126.426 569.16 129.53C566.455 130.12 563.633 129.861 561.08 128.79C557.34 127.32 554.13 124.79 550.54 122.97C540.43 117.85 528.4 118.86 517.2 120.55C511.64 121.39 505.33 122.17 500.96 118.63C500.81 118.511 500.666 118.385 500.53 118.25C500.761 108.967 504.67 100.157 511.396 93.7561C518.123 87.3555 527.117 83.8893 536.4 84.12C545.683 84.3508 554.493 88.2595 560.894 94.9865C567.295 101.713 570.761 110.707 570.53 119.99H570.48Z" fill="black"/>
<path id="Vector_54" opacity="0.05" d="M407.45 227.381C407.45 227.381 433.45 234.381 441.45 252.381C449.45 270.381 471.09 273.671 471.09 273.671" fill="black"/>
<path id="Vector_55" d="M505.45 623.381H445.45V642.381H505.45V623.381Z" fill="#6C63FF"/>
<path id="Vector_56" opacity="0.1" d="M505.45 623.381H445.45V642.381H505.45V623.381Z" fill="black"/>
<path id="Vector_57" d="M454.46 588.121C459.83 585.121 464.54 582.121 464.95 580.881C464.95 580.881 478.5 595.181 490.57 599.621C494.629 601.12 498.514 603.051 502.16 605.381C506.94 608.381 513.76 611.911 519.95 611.911C519.95 611.911 533.95 623.911 506.95 625.911C479.95 627.911 416.95 620.911 416.95 620.911L420.95 595.911C432.637 596.596 444.274 593.891 454.46 588.121Z" fill="#ABB1D1"/>
</g>
<path id="hat" d="M473.624 99.9267C475.754 106.607 485.984 106.817 491.234 111.737C493.964 114.297 495.234 118.077 498.234 120.357C502.404 123.537 508.424 122.837 513.734 122.077C524.424 120.557 535.904 119.647 545.544 124.257C548.964 125.887 552.034 128.167 555.604 129.497C559.174 130.827 563.604 130.987 566.504 128.627C568.824 126.737 569.674 123.627 571.774 121.547C573.404 119.907 575.674 118.987 577.534 117.547C581.614 114.467 583.374 109.447 584.534 104.647C586.934 94.7667 587.624 84.1167 583.534 74.7467C579.444 65.3767 569.604 57.7467 558.864 58.2367C555.574 58.3867 552.364 59.2367 549.084 59.5967C540.534 60.4667 532.084 57.5967 523.504 57.1067C521.015 56.8039 518.49 57.1483 516.174 58.1067C514.427 59.0775 512.92 60.4273 511.764 62.0567C507.836 67.2021 505.146 73.1836 503.904 79.5367C502.904 84.3267 502.854 88.6667 496.984 89.4067C490.314 90.2867 469.114 85.7967 473.624 99.9267Z" fill="#472727"/>
</g>
<defs>
<linearGradient id="paint0_linear" x1="528.85" y1="0" x2="528.85" y2="784.98" gradientUnits="userSpaceOnUse">
<stop stop-color="white"/>
<stop offset="1" stop-color="white" stop-opacity="0"/>
</linearGradient>
<linearGradient id="paint1_linear" x1="1029.5" y1="186.5" x2="82.5" y2="687" gradientUnits="userSpaceOnUse">
<stop stop-color="#223ED1"/>
<stop offset="0.0001" stop-color="#52F2DF" stop-opacity="0.86"/>
<stop offset="1" stop-color="#2234D1"/>
</linearGradient>
<clipPath id="clip0">
<rect width="1057.7" height="784.98" fill="white"/>
</clipPath>
</defs>
</svg>
